<svg preserveAspectRatio="none" width="100%" height="100%" overflow="visible" style="display: block;" viewBox="0 0 90 37.6524" fill="none" xmlns="http://www.w3.org/2000/svg">
<path id="Vector" d="M14.6866 24.8186C14.6866 26.615 14.6803 33.1574 7.57817 33.1574C3.11062 33.1574 0 30.1792 0 25.3273C0 20.5812 3.14118 17.4409 7.67995 17.4409C10.7346 17.4409 13.2219 18.9797 14.2633 21.2115L11.3857 22.8585C10.6614 21.413 9.43162 20.5169 7.62574 20.5169C5.02001 20.5169 3.53477 22.8493 3.53477 25.31C3.53477 27.8845 5.09412 30.0878 7.66467 30.0878C9.583 30.0878 10.7182 28.7703 10.8667 27.5792H7.53866V24.8186H14.6866ZM10.0357 7.90284C10.0357 10.9858 8.08074 12.251 5.80228 12.251H4.48917V3.57542H5.84812C8.30969 3.57542 10.0357 5.04855 10.0357 7.90284ZM13.5341 7.90284C13.5341 3.32226 10.1732 0.560534 6.07678 0.560534H1.12914V15.244H6.07707C10.1499 15.244 13.5341 12.4823 13.5341 7.90284ZM17.5735 5.09728H14.4894V15.244H17.5735V5.09728ZM17.8024 1.77185C17.8024 0.80447 17.0202 0 16.0303 0C15.0629 0 14.2809 0.80447 14.2809 1.77185C14.2809 2.73837 15.0629 3.54399 16.0303 3.54399C17.0202 3.54399 17.8024 2.73837 17.8024 1.77185ZM21.7948 6.96371C22.5087 5.74403 23.6828 4.9609 25.2941 4.9609H25.7537V8.09084C25.2471 7.86189 25.0173 7.81518 24.4873 7.81518C22.5087 7.81518 21.7948 9.10406 21.7948 10.8301V15.2437H18.7107V5.10017H21.7948V6.96371ZM33.7257 8.83764H29.4251C29.5612 7.70359 30.3882 6.8256 31.609 6.8256C32.7826 6.8256 33.6341 7.66294 33.7257 8.83764ZM36.6714 10.8854V9.97197C36.6714 6.74342 34.9007 4.77694 31.4248 4.77694C28.0864 4.77694 26.1444 6.85818 26.1444 10.1724C26.1444 13.6247 28.2928 15.5655 31.6782 15.5655C33.9567 15.5655 35.9572 14.7374 36.5353 12.3675H33.5873C33.1969 13.0347 32.4147 13.2879 31.6546 13.2879C30.2965 13.2879 29.3793 12.4978 29.3559 10.8854H36.6714ZM45.8986 8.37946C45.4551 8.0349 44.5082 7.42448 43.4065 7.42448C41.9336 7.42448 40.7595 8.56169 40.7595 10.1718C40.7595 11.8309 41.9091 12.9182 43.4757 12.9182C44.5622 12.9182 45.5497 12.379 45.969 12.0506V14.7809C45.5255 15.0707 44.3923 15.5661 42.9835 15.5661C40.0133 15.5661 37.5598 13.5338 37.5598 10.288C37.5598 6.8354 39.9905 4.7778 43.1207 4.7778C44.4889 4.7778 45.3231 5.06153 45.8986 5.42945V8.37946ZM19.0755 24.4011C19.7897 23.1803 20.9624 22.398 22.5736 22.398H23.0344V25.5291C22.5269 25.2981 22.2971 25.2523 21.7691 25.2523C19.7897 25.2523 19.0755 26.54 19.0755 28.2672V32.6817H15.9902V22.5367H19.0755V24.4011ZM32.0767 27.5746C32.0767 29.0699 31.0087 30.2316 29.5572 30.2316C28.1089 30.2316 27.0386 29.0696 27.0386 27.5746C27.0386 26.1251 28.1089 24.9605 29.5572 24.9605C31.0087 24.9605 32.0767 26.1251 32.0767 27.5746ZM35.335 27.5746C35.335 24.167 32.7817 22.1915 29.5572 22.1915C26.3347 22.1915 23.7806 24.1667 23.7806 27.5746C23.7806 30.9802 26.3592 33.0035 29.5572 33.0035C32.7817 33.0035 35.335 30.9588 35.335 27.5746ZM39.6125 22.513V27.7934C39.6125 29.2899 39.992 30.2867 41.5819 30.2867C43.1453 30.2867 43.538 29.2899 43.538 27.7934V22.513H46.6232V28.1403C46.6232 31.43 44.8012 33.0026 41.5819 33.0026C38.3574 33.0026 36.5284 31.43 36.5284 28.1403V22.513H39.6125ZM55.9107 27.61C55.9107 29.1743 54.8755 30.2893 53.4716 30.2893C52.0668 30.2893 51.008 29.1054 51.008 27.61C51.008 26.1136 52.0668 24.9083 53.4716 24.9083C54.8969 24.9083 55.9107 26.0914 55.9107 27.61ZM59.1793 27.6331C59.1793 24.1583 57.2454 22.191 54.5062 22.191C53.0333 22.191 51.8145 22.8593 51.1231 23.8481V22.537H48.0387V37.6524H51.1231V31.53C51.952 32.6122 53.2173 33.0029 54.5062 33.0029C57.154 33.0029 59.1793 31.1088 59.1793 27.6331ZM59.0224 12.2525H63.1809V15.244H55.6627V0.559381H59.0224V12.2525ZM67.2779 5.0993H64.1938V15.2428H67.2779V5.0993ZM67.508 1.77185C67.508 0.80447 66.7246 0 65.7359 0C64.7676 0 63.9854 0.80447 63.9854 1.77185C63.9854 2.73837 64.7676 3.54399 65.7359 3.54399C66.7249 3.54399 67.508 2.73837 67.508 1.77185ZM71.4727 6.38876C72.3253 5.16908 73.5459 4.77751 74.9253 4.77751C77.6187 4.77751 78.4459 6.45681 78.4459 8.92039V15.2446H75.3621V10.1401C75.3621 8.96537 75.3621 7.35614 73.5456 7.35614C71.979 7.35614 71.4724 8.43742 71.4724 9.91026V15.2446H68.3883V5.09901H71.4724L71.4727 6.38876ZM86.8335 8.83764H82.5314C82.6669 7.70359 83.495 6.8256 84.7144 6.8256C85.8894 6.8256 86.7409 7.66294 86.8335 8.83764ZM90 10.8854V9.97197C90 6.74342 88.0073 4.77694 84.5313 4.77694C81.1929 4.77694 79.2513 6.85818 79.2513 10.1724C79.2513 13.6247 81.4005 15.5655 84.7845 15.5655C87.0633 15.5655 89.2858 14.7374 89.8628 12.3675H86.695C86.3035 13.0347 85.5212 13.2879 84.7614 13.2879C83.4034 13.2879 82.485 12.4978 82.4613 10.8854H90ZM51.1095 15.2457L48.0254 15.2446V8.2797H46.924V5.4306H48.0254V2.18562H51.1095V5.43262H52.8266V8.28085H51.1095V15.2457Z" fill="var(--fill-0, black)" fill-opacity="0.5"/>
</svg>
